<?xml version="1.0" encoding="UTF-8" standalone="no"?>
<!DOCTYPE svg PUBLIC "-//W3C//DTD SVG 1.1//EN" "http://www.w3.org/Graphics/SVG/1.1/DTD/svg11.dtd">
<svg width="100%" height="100%" viewBox="0 0 453 611" version="1.1" xmlns="http://www.w3.org/2000/svg" xmlns:xlink="http://www.w3.org/1999/xlink" xml:space="preserve" xmlns:serif="http://www.serif.com/" style="fill-rule:evenodd;clip-rule:evenodd;stroke-linecap:round;stroke-linejoin:round;">
    <g id="Layer-1" serif:id="Layer 1" transform="matrix(1,0,0,1,1344.48,2468.68)">
        <path id="path10956" d="M-1287.47,-1957.84C-1284.77,-1946.15 -1279.1,-1934.55 -1271.06,-1925.76C-1257.02,-1910.41 -1238.66,-1901.61 -1219.87,-1899.28C-1218.77,-1899.14 -1215.29,-1900.13 -1213.82,-1900.59" style="fill:none;fill-rule:nonzero;stroke:rgb(0,228,255);stroke-width:0.35px;"/>
        <path id="path10932" d="M-993.9,-2416.29C-994.639,-2418.82 -1000.09,-2421.92 -1002.96,-2421.44C-1013.82,-2419.59 -1023.87,-2414.53 -1032.86,-2409.03L-1032.92,-2409.03C-1067.41,-2386.68 -1083.65,-2359.01 -1093.03,-2320.76C-1102.42,-2282.49 -1104.57,-2233.68 -1110.21,-2170.29L-1110.95,-2159.51C-1112.91,-2105.16 -1116.75,-2046.33 -1131.1,-1997.99C-1145.45,-1949.66 -1170.7,-1911.47 -1215.27,-1900.29" style="fill:none;fill-rule:nonzero;stroke:rgb(0,228,255);stroke-width:0.35px;"/>
        <path id="path10926" d="M-1218.23,-1901.33C-1217.25,-1899.58 -1214.25,-1898.77 -1213.08,-1898.72C-1202.83,-1898.3 -1192.59,-1899.79 -1182.99,-1903.18L-1182.92,-1903.18C-1092.86,-1939.15 -1073.86,-2049.32 -1070.86,-2139.97L-1070.39,-2152.1C-1067.53,-2195.58 -1070.22,-2252.32 -1063.59,-2303.24C-1056.94,-2354.16 -1040.81,-2399.84 -999.504,-2419.88" style="fill:none;fill-rule:nonzero;stroke:rgb(0,255,123);stroke-width:0.35px;"/>
        <path id="path10924" d="M-993.342,-2416.34L-968.103,-2386.8" style="fill:none;fill-rule:nonzero;stroke:rgb(0,228,255);stroke-width:0.35px;"/>
        <path id="path11718" d="M-998.172,-2417.18L-970.389,-2384.82C-984.059,-2373.18 -985.31,-2359.54 -978.837,-2346.51C-972.803,-2336.32 -958.581,-2333.2 -947.394,-2339.25C-915.261,-2357.8 -940.985,-2402.35 -965.343,-2416.54C-992.231,-2433.08 -1015.98,-2422.95 -1034.5,-2411.62C-1104.73,-2366.13 -1101.98,-2297.23 -1113.27,-2170.59L-1121.46,-2165.7L-1113.99,-2159.62C-1117.89,-2051.04 -1129.5,-1924.88 -1216.01,-1903.17L-1245.56,-1940.98C-1231.26,-1945.01 -1221.81,-1956.43 -1219.15,-1969.06C-1215.74,-1995.01 -1239.3,-2020.37 -1270.08,-2009.95C-1300.86,-1999.53 -1297.47,-1950.18 -1273.25,-1923.71C-1249.04,-1897.25 -1212.41,-1889.53 -1181.88,-1900.35C-1091.49,-1935.66 -1070.59,-2045.57 -1067.82,-2139.91L-1059.87,-2144.51L-1067.37,-2151.87C-1061.6,-2239.41 -1078.09,-2378.41 -998.172,-2417.18Z" style="fill:none;fill-rule:nonzero;stroke:rgb(114,174,179);stroke-width:0.35px;"/>
        <g id="path8575" transform="matrix(2.15627,0,0,2.15627,-1562.02,-5445.67)">
            <path d="M145.5,1609.58C145.5,1611.38 144.045,1612.83 142.25,1612.83C140.455,1612.83 139,1611.38 139,1609.58C139,1607.79 140.455,1606.33 142.25,1606.33C144.045,1606.33 145.5,1607.79 145.5,1609.58Z" style="fill:rgb(39,113,190);fill-rule:nonzero;stroke:white;stroke-opacity:0.24;stroke-width:0.16px;stroke-linecap:butt;stroke-miterlimit:2;"/>
        </g>
        <g id="path9406" transform="matrix(2.15627,0,0,2.15627,-1264.45,-5831.64)">
            <path d="M145.5,1609.58C145.5,1611.38 144.045,1612.83 142.25,1612.83C140.455,1612.83 139,1611.38 139,1609.58C139,1607.79 140.455,1606.33 142.25,1606.33C144.045,1606.33 145.5,1607.79 145.5,1609.58Z" style="fill:rgb(39,113,190);fill-rule:nonzero;stroke:white;stroke-opacity:0.24;stroke-width:0.16px;stroke-linecap:butt;stroke-miterlimit:2;"/>
        </g>
        <g id="path10376" transform="matrix(2.16842,0,0,2.16842,-529.932,-2075.18)">
            <path d="M-318.934,45.709C-318.934,54.44 -326.012,61.518 -334.743,61.518C-343.474,61.518 -350.551,54.44 -350.551,45.709C-350.551,36.978 -343.474,29.9 -334.743,29.9C-326.012,29.9 -318.934,36.978 -318.934,45.709Z" style="fill:none;fill-rule:nonzero;stroke:rgb(0,119,255);stroke-width:0.16px;stroke-linejoin:bevel;"/>
        </g>
        <g id="path10934" transform="matrix(2.15627,0,0,2.15627,-533.406,-2068.88)">
            <path d="M-186.213,-135.449C-186.213,-129.611 -190.946,-124.879 -196.783,-124.879C-202.621,-124.879 -207.353,-129.611 -207.353,-135.449C-207.353,-141.287 -202.621,-146.019 -196.783,-146.019C-190.946,-146.019 -186.213,-141.287 -186.213,-135.449Z" style="fill:none;fill-rule:nonzero;stroke:rgb(0,119,255);stroke-width:0.16px;stroke-linejoin:bevel;"/>
        </g>
        <path id="path3074" d="M-1220.46,-1932.26L-1215.95,-1932.26L-1215.95,-1947.83L-1220.86,-1946.85L-1220.86,-1949.37L-1215.98,-1950.35L-1213.22,-1950.35L-1213.22,-1932.26L-1208.71,-1932.26L-1208.71,-1929.94L-1220.46,-1929.94L-1220.46,-1932.26" style="fill:rgb(39,113,190);fill-rule:nonzero;"/>
        <g id="path3077" transform="matrix(1,0,0,1,341.41,-357.385)">
            <path d="M-1309.91,-1954.62L-1300.27,-1954.62L-1300.27,-1952.29L-1313.23,-1952.29L-1313.23,-1954.62C-1312.18,-1955.7 -1310.76,-1957.16 -1308.95,-1958.98C-1307.14,-1960.81 -1306,-1961.99 -1305.54,-1962.52C-1304.65,-1963.51 -1304.04,-1964.35 -1303.69,-1965.04C-1303.34,-1965.73 -1303.16,-1966.41 -1303.16,-1967.07C-1303.16,-1968.16 -1303.54,-1969.04 -1304.31,-1969.73C-1305.06,-1970.41 -1306.05,-1970.75 -1307.27,-1970.75C-1308.14,-1970.75 -1309.05,-1970.6 -1310.02,-1970.3C-1310.98,-1970 -1312,-1969.54 -1313.1,-1968.93L-1313.1,-1971.72C-1311.99,-1972.17 -1310.94,-1972.51 -1309.98,-1972.73C-1309.01,-1972.96 -1308.13,-1973.08 -1307.33,-1973.08C-1305.21,-1973.08 -1303.53,-1972.55 -1302.27,-1971.49C-1301.01,-1970.43 -1300.38,-1969.02 -1300.38,-1967.25C-1300.38,-1966.41 -1300.54,-1965.62 -1300.86,-1964.86C-1301.17,-1964.11 -1301.74,-1963.23 -1302.57,-1962.21C-1302.8,-1961.94 -1303.52,-1961.18 -1304.74,-1959.91C-1305.96,-1958.65 -1307.69,-1956.89 -1309.91,-1954.62" style="fill:rgb(39,113,190);fill-rule:nonzero;"/>
        </g>
        <g id="g9363" transform="matrix(-2.19236,0,0,2.19236,23.5993,-5535.57)">
            <path id="path9365" d="M507.477,854.858L507.477,1455.12M507.477,1609.74L507.477,2085.36" style="fill:none;fill-rule:nonzero;stroke:white;stroke-opacity:0.24;stroke-width:0.16px;stroke-linecap:butt;stroke-linejoin:miter;"/>
            <path id="path9367" d="M503.977,853.617L503.977,1446.74M503.977,1598L503.977,2086.36" style="fill:none;fill-rule:nonzero;stroke:white;stroke-opacity:0.24;stroke-width:0.16px;stroke-linecap:butt;stroke-linejoin:miter;"/>
            <path id="path9369" d="M476.483,845.623L476.483,1421.58M476.483,1429.63L476.483,2090.36" style="fill:none;fill-rule:nonzero;stroke:white;stroke-opacity:0.24;stroke-width:0.16px;stroke-linecap:butt;stroke-linejoin:miter;"/>
            <path id="path9371" d="M479.911,846.371L479.911,1423.6M479.911,1433.66L479.911,2090.36" style="fill:none;fill-rule:nonzero;stroke:white;stroke-opacity:0.24;stroke-width:0.16px;stroke-linecap:butt;stroke-linejoin:miter;"/>
            <path id="path9373" d="M483.337,847.866L483.337,1425.27M483.337,1438.35L483.337,2089.86" style="fill:none;fill-rule:nonzero;stroke:white;stroke-opacity:0.24;stroke-width:0.16px;stroke-linecap:butt;stroke-linejoin:miter;"/>
            <path id="path9375" d="M486.765,847.866L486.765,1427.62M486.765,1444.39L486.765,2089.36" style="fill:none;fill-rule:nonzero;stroke:white;stroke-opacity:0.24;stroke-width:0.16px;stroke-linecap:butt;stroke-linejoin:miter;"/>
            <path id="path9377" d="M490.193,849.362L490.193,1430.3M490.193,1453.78L490.193,2088.61" style="fill:none;fill-rule:nonzero;stroke:white;stroke-opacity:0.24;stroke-width:0.16px;stroke-linecap:butt;stroke-linejoin:miter;"/>
            <path id="path9379" d="M493.621,849.86L493.621,1433.32M493.621,1469.54L493.621,2088.11" style="fill:none;fill-rule:nonzero;stroke:white;stroke-opacity:0.24;stroke-width:0.16px;stroke-linecap:butt;stroke-linejoin:miter;"/>
            <path id="path9381" d="M497.048,851.631L497.048,1437.68M497.048,1513.82L497.048,1544.27M497.048,1548.42L497.048,2087.36" style="fill:none;fill-rule:nonzero;stroke:white;stroke-opacity:0.24;stroke-width:0.16px;stroke-linecap:butt;stroke-linejoin:miter;"/>
            <path id="path9383" d="M500.476,852.127L500.476,1441.71M500.476,1578.21L500.476,2087.36" style="fill:none;fill-rule:nonzero;stroke:white;stroke-opacity:0.24;stroke-width:0.16px;stroke-linecap:butt;stroke-linejoin:miter;"/>
            <path id="path9415" d="M418.041,836.883L418.041,2094.86" style="fill:none;fill-rule:nonzero;stroke:white;stroke-opacity:0.24;stroke-width:0.16px;stroke-linecap:butt;stroke-linejoin:miter;"/>
            <path id="path9417" d="M421.468,836.883L421.468,2094.86" style="fill:none;fill-rule:nonzero;stroke:white;stroke-opacity:0.24;stroke-width:0.16px;stroke-linecap:butt;stroke-linejoin:miter;"/>
            <path id="path9419" d="M424.896,836.133L424.896,2094.61" style="fill:none;fill-rule:nonzero;stroke:white;stroke-opacity:0.24;stroke-width:0.16px;stroke-linecap:butt;stroke-linejoin:miter;"/>
            <path id="path9421" d="M428.324,837.133L428.324,2094.36" style="fill:none;fill-rule:nonzero;stroke:white;stroke-opacity:0.24;stroke-width:0.16px;stroke-linecap:butt;stroke-linejoin:miter;"/>
            <path id="path9423" d="M431.752,837.383L431.752,2093.86" style="fill:none;fill-rule:nonzero;stroke:white;stroke-opacity:0.24;stroke-width:0.16px;stroke-linecap:butt;stroke-linejoin:miter;"/>
            <path id="path9425" d="M435.18,837.883L435.18,2094.36" style="fill:none;fill-rule:nonzero;stroke:white;stroke-opacity:0.24;stroke-width:0.16px;stroke-linecap:butt;stroke-linejoin:miter;"/>
            <path id="path9427" d="M438.607,838.633L438.607,1436.96M438.607,1454.63L438.607,2094.11" style="fill:none;fill-rule:nonzero;stroke:white;stroke-opacity:0.24;stroke-width:0.16px;stroke-linecap:butt;stroke-linejoin:miter;"/>
            <path id="path9429" d="M442.035,838.633L442.035,1431.03M442.035,1457.35L442.035,2093.86" style="fill:none;fill-rule:nonzero;stroke:white;stroke-opacity:0.24;stroke-width:0.16px;stroke-linecap:butt;stroke-linejoin:miter;"/>
            <path id="path9431" d="M445.463,839.133L445.463,1427M445.463,1458.9L445.463,2093.36" style="fill:none;fill-rule:nonzero;stroke:white;stroke-opacity:0.24;stroke-width:0.16px;stroke-linecap:butt;stroke-linejoin:miter;"/>
            <path id="path9433" d="M448.891,839.883L448.891,1424.27M448.891,1459.13L448.891,2093.36" style="fill:none;fill-rule:nonzero;stroke:white;stroke-opacity:0.24;stroke-width:0.16px;stroke-linecap:butt;stroke-linejoin:miter;"/>
            <path id="path9435" d="M452.318,840.633L452.318,1421.9M452.318,1458.66L452.318,2092.86" style="fill:none;fill-rule:nonzero;stroke:white;stroke-opacity:0.24;stroke-width:0.16px;stroke-linecap:butt;stroke-linejoin:miter;"/>
            <path id="path9437" d="M455.746,840.883L455.746,1420.48M455.746,1435.06L455.746,1438.86M455.746,1456.29L455.746,2092.86" style="fill:none;fill-rule:nonzero;stroke:white;stroke-opacity:0.24;stroke-width:0.16px;stroke-linecap:butt;stroke-linejoin:miter;"/>
            <path id="path9439" d="M459.174,842.133L459.174,1419.29M459.174,1430.32L459.174,2092.61" style="fill:none;fill-rule:nonzero;stroke:white;stroke-opacity:0.24;stroke-width:0.16px;stroke-linecap:butt;stroke-linejoin:miter;"/>
            <path id="path9441" d="M462.601,842.382L462.601,1418.82M462.601,1426.52L462.601,2092.61" style="fill:none;fill-rule:nonzero;stroke:white;stroke-opacity:0.24;stroke-width:0.16px;stroke-linecap:butt;stroke-linejoin:miter;"/>
            <path id="path9443" d="M466.029,843.13L466.029,1418.82M466.029,1422.37L466.029,2092.61" style="fill:none;fill-rule:nonzero;stroke:white;stroke-opacity:0.24;stroke-width:0.16px;stroke-linecap:butt;stroke-linejoin:miter;"/>
            <path id="path9445" d="M469.457,843.878L469.457,1418.93M469.457,1424.15L469.457,2091.11" style="fill:none;fill-rule:nonzero;stroke:white;stroke-opacity:0.24;stroke-width:0.16px;stroke-linecap:butt;stroke-linejoin:miter;"/>
            <path id="path9447" d="M472.885,844.875L472.885,1420M472.885,1426.64L472.885,2091.11" style="fill:none;fill-rule:nonzero;stroke:white;stroke-opacity:0.24;stroke-width:0.16px;stroke-linecap:butt;stroke-linejoin:miter;"/>
            <path id="path9449" d="M511.523,856.879L511.523,1469.21M511.523,1619.8L511.523,2084.57" style="fill:none;fill-rule:nonzero;stroke:white;stroke-opacity:0.24;stroke-width:0.16px;stroke-linecap:butt;stroke-linejoin:miter;"/>
            <path id="path9451" d="M516.121,858.616L516.121,1501.74M516.121,1628.52L516.121,2083.57" style="fill:none;fill-rule:nonzero;stroke:white;stroke-opacity:0.24;stroke-width:0.16px;stroke-linecap:butt;stroke-linejoin:miter;"/>
            <path id="path9453" d="M520.719,860.106L520.719,1536.09M520.719,1537.99L520.719,1569.15M520.719,1635.23L520.719,2082.82" style="fill:none;fill-rule:nonzero;stroke:white;stroke-opacity:0.24;stroke-width:0.16px;stroke-linecap:butt;stroke-linejoin:miter;"/>
            <path id="path9455" d="M525.317,862.588L525.317,1601.02M525.317,1640.59L525.317,2081.32" style="fill:none;fill-rule:nonzero;stroke:white;stroke-opacity:0.24;stroke-width:0.16px;stroke-linecap:butt;stroke-linejoin:miter;"/>
            <path id="path9457" d="M529.915,864.822L529.915,1618.46M529.915,1645.62L529.915,2080.07" style="fill:none;fill-rule:nonzero;stroke:white;stroke-opacity:0.24;stroke-width:0.16px;stroke-linecap:butt;stroke-linejoin:miter;"/>
            <path id="path9459" d="M534.508,866.807L534.508,1629.52M534.508,1649.65L534.508,2078.82" style="fill:none;fill-rule:nonzero;stroke:white;stroke-opacity:0.24;stroke-width:0.16px;stroke-linecap:butt;stroke-linejoin:miter;"/>
            <path id="path9461" d="M539.104,869.413L539.104,1637.91M539.104,1653L539.104,2077.82" style="fill:none;fill-rule:nonzero;stroke:white;stroke-opacity:0.24;stroke-width:0.16px;stroke-linecap:butt;stroke-linejoin:miter;"/>
            <path id="path9463" d="M543.702,872.123L543.702,1643.95M543.702,1655.68L543.702,2075.82" style="fill:none;fill-rule:nonzero;stroke:white;stroke-opacity:0.24;stroke-width:0.16px;stroke-linecap:butt;stroke-linejoin:miter;"/>
            <path id="path9465" d="M548.301,874.832L548.301,1647.97M548.301,1657.36L548.301,2075.07" style="fill:none;fill-rule:nonzero;stroke:white;stroke-opacity:0.24;stroke-width:0.16px;stroke-linecap:butt;stroke-linejoin:miter;"/>
            <path id="path9467" d="M552.899,878.033L552.899,1651.66M552.899,1659.37L552.899,2073.57" style="fill:none;fill-rule:nonzero;stroke:white;stroke-opacity:0.24;stroke-width:0.16px;stroke-linecap:butt;stroke-linejoin:miter;"/>
            <path id="path9469" d="M557.497,880.742L557.497,1653.96M557.497,1660.12L557.497,2072.32" style="fill:none;fill-rule:nonzero;stroke:white;stroke-opacity:0.24;stroke-width:0.16px;stroke-linecap:butt;stroke-linejoin:miter;"/>
            <path id="path9471" d="M562.096,883.944L562.096,1357.83M562.096,1360.41L562.096,1655.62M562.096,1660.36L562.096,2070.32" style="fill:none;fill-rule:nonzero;stroke:white;stroke-opacity:0.24;stroke-width:0.16px;stroke-linecap:butt;stroke-linejoin:miter;"/>
            <path id="path9473" d="M566.694,886.407L566.694,1332.83M566.694,1341.2L566.694,1655.02M566.694,1660.36L566.694,2069.07" style="fill:none;fill-rule:nonzero;stroke:white;stroke-opacity:0.24;stroke-width:0.16px;stroke-linecap:butt;stroke-linejoin:miter;"/>
            <path id="path9475" d="M571.293,890.594L571.293,1318.7M571.293,1341.08L571.293,1612.22M571.293,1634.98L571.293,1649.45M571.293,1659.41L571.293,2067.07" style="fill:none;fill-rule:nonzero;stroke:white;stroke-opacity:0.24;stroke-width:0.16px;stroke-linecap:butt;stroke-linejoin:miter;"/>
            <path id="path9477" d="M575.891,894.042L575.891,1308.95M575.891,1342.47L575.891,1608.78M575.891,1638.3L575.891,1643.64M575.891,1657.99L575.891,2065.58" style="fill:none;fill-rule:nonzero;stroke:white;stroke-opacity:0.24;stroke-width:0.16px;stroke-linecap:butt;stroke-linejoin:miter;"/>
            <path id="path9479" d="M580.49,897.49L580.49,1301.95M580.49,1335.58L580.49,1607.71M580.49,1655.97L580.49,2062.82" style="fill:none;fill-rule:nonzero;stroke:white;stroke-opacity:0.24;stroke-width:0.16px;stroke-linecap:butt;stroke-linejoin:miter;"/>
            <path id="path9481" d="M585.088,902.169L585.088,1296.95M585.088,1344.9L585.088,1607.24M585.088,1653.25L585.088,2061.32" style="fill:none;fill-rule:nonzero;stroke:white;stroke-opacity:0.24;stroke-width:0.16px;stroke-linecap:butt;stroke-linejoin:miter;"/>
            <path id="path9483" d="M589.676,905.367L589.676,1293.2M589.676,1333.88L589.676,1608.07M589.676,1649.45L589.676,2058.33" style="fill:none;fill-rule:nonzero;stroke:white;stroke-opacity:0.24;stroke-width:0.16px;stroke-linecap:butt;stroke-linejoin:miter;"/>
            <path id="path9485" d="M594.27,911.408L594.27,1290.33M594.27,1340.53L594.27,1610.2M594.27,1644.11L594.27,2056.58" style="fill:none;fill-rule:nonzero;stroke:white;stroke-opacity:0.24;stroke-width:0.16px;stroke-linecap:butt;stroke-linejoin:miter;"/>
            <path id="path9487" d="M598.87,914.791L598.87,1288.33M598.87,1348.62L598.87,1616.6M598.87,1634.39L598.87,2054.33" style="fill:none;fill-rule:nonzero;stroke:white;stroke-opacity:0.24;stroke-width:0.16px;stroke-linecap:butt;stroke-linejoin:miter;"/>
            <path id="path9489" d="M603.47,920.108L603.47,1286.95M603.47,1351.55L603.47,2051.33" style="fill:none;fill-rule:nonzero;stroke:white;stroke-opacity:0.24;stroke-width:0.16px;stroke-linecap:butt;stroke-linejoin:miter;"/>
            <path id="path9491" d="M608.071,925.183L608.071,1286.45M608.071,1349.36L608.071,2049.08" style="fill:none;fill-rule:nonzero;stroke:white;stroke-opacity:0.24;stroke-width:0.16px;stroke-linecap:butt;stroke-linejoin:miter;"/>
            <path id="path9493" d="M612.671,930.741L612.671,1286.33M612.671,1348.24L612.671,2046.33" style="fill:none;fill-rule:nonzero;stroke:white;stroke-opacity:0.24;stroke-width:0.16px;stroke-linecap:butt;stroke-linejoin:miter;"/>
            <path id="path9495" d="M617.271,937.749L617.271,1286.7M617.271,1353.56L617.271,2043.33" style="fill:none;fill-rule:nonzero;stroke:white;stroke-opacity:0.24;stroke-width:0.16px;stroke-linecap:butt;stroke-linejoin:miter;"/>
            <path id="path9497" d="M621.872,944.516L621.872,1287.7M621.872,1344.47L621.872,2040.33" style="fill:none;fill-rule:nonzero;stroke:white;stroke-opacity:0.24;stroke-width:0.16px;stroke-linecap:butt;stroke-linejoin:miter;"/>
        </g>
    </g>
</svg>
